<?xml version="1.0" encoding="UTF-8" standalone="no"?>
<!-- Created with Inkscape (http://www.inkscape.org/) -->

<svg
   width="210mm"
   height="297mm"
   viewBox="0 0 210 297"
   version="1.1"
   id="svg5"
   xml:space="preserve"
   inkscape:version="1.2.1 (9c6d41e410, 2022-07-14)"
   sodipodi:docname="rabbit-ink.svg"
   xmlns:inkscape="http://www.inkscape.org/namespaces/inkscape"
   xmlns:sodipodi="http://sodipodi.sourceforge.net/DTD/sodipodi-0.dtd"
   xmlns="http://www.w3.org/2000/svg"
   xmlns:svg="http://www.w3.org/2000/svg"><sodipodi:namedview
     id="namedview7"
     pagecolor="#ffffff"
     bordercolor="#999999"
     borderopacity="1"
     inkscape:showpageshadow="0"
     inkscape:pageopacity="0"
     inkscape:pagecheckerboard="0"
     inkscape:deskcolor="#d1d1d1"
     inkscape:document-units="mm"
     showgrid="false"
     showborder="true"
     inkscape:zoom="0.70199214"
     inkscape:cx="393.1668"
     inkscape:cy="514.25077"
     inkscape:window-width="1920"
     inkscape:window-height="986"
     inkscape:window-x="-11"
     inkscape:window-y="-11"
     inkscape:window-maximized="1"
     inkscape:current-layer="layer1" /><defs
     id="defs2" /><g
     inkscape:label="Layer 1"
     inkscape:groupmode="layer"
     id="layer1"
     style="display:inline"><path
       style="mix-blend-mode:normal;fill:#916f6f;stroke:#000000;stroke-width:1;stroke-miterlimit:4;stroke-dasharray:none"
       d="m 110.43274,71.23477 c 16.20685,50.88198 16.20685,50.88198 16.20685,50.88198 z"
       id="path356" /><path
       style="mix-blend-mode:normal;fill:#916f6f;stroke:#000000;stroke-width:1;stroke-miterlimit:4;stroke-dasharray:none"
       d="M 156.79187,69.350254 148.5,120.98604 Z"
       id="path358" /><path
       style="mix-blend-mode:normal;fill:#916f6f;stroke:#000000;stroke-width:1;stroke-miterlimit:4;stroke-dasharray:none"
       d="m 126.26269,122.11675 c 5.70689,2.90855 12.94801,3.87936 22.61421,-1.13071 -7.16117,4.25096 -15.45304,5.9188 -22.61421,1.13071 z"
       id="path360"
       sodipodi:nodetypes="ccc" /><path
       style="mix-blend-mode:normal;fill:#916f6f;stroke:#000000;stroke-width:1;stroke-miterlimit:4;stroke-dasharray:none"
       d="m 110.05584,71.611674 c 13.31915,1.882624 24.93207,5.471479 47.86674,-2.261421 -14.91844,6.458072 -30.93857,6.856836 -47.86674,2.261421 z"
       id="path458"
       sodipodi:nodetypes="ccc" /><path
       style="mix-blend-mode:normal;fill:none;stroke:#000000;stroke-width:1;stroke-miterlimit:4;stroke-dasharray:none"
       d="M 152.71831,71.387034 C 152.56557,59.40795 150.56498,56.421545 146.68785,52.918759"
       id="path464"
       sodipodi:nodetypes="cc" /><path
       style="mix-blend-mode:normal;fill:none;stroke:#000000;stroke-width:1;stroke-miterlimit:4;stroke-dasharray:none"
       d="m 115.13213,72.372991 c 0.34014,-9.376398 3.29149,-15.532399 6.40738,-16.960661"
       id="path475"
       sodipodi:nodetypes="cc" /><path
       style="mix-blend-mode:normal;fill:none;stroke:#000000;stroke-width:1;stroke-miterlimit:4;stroke-dasharray:none"
       d="m 119.47843,44.097715 -10.1764,17.714467"
       id="path531" /><path
       style="mix-blend-mode:normal;fill:#f4d7d7;stroke:#000000;stroke-width:1;stroke-miterlimit:4;stroke-dasharray:none"
       d="m 112.69416,32.413706 c -4.55352,11.777638 -9.30424,25.361288 -3.01523,28.267766"
       id="path533"
       sodipodi:nodetypes="cc" /><path
       style="mix-blend-mode:normal;fill:none;stroke:#000000;stroke-width:1;stroke-miterlimit:4;stroke-dasharray:none"
       d="m 120.98604,56.158629 -5.27665,-5.653553"
       id="path535" /><path
       style="mix-blend-mode:normal;fill:none;stroke:#000000;stroke-width:1;stroke-miterlimit:4;stroke-dasharray:none"
       d="m 113.06864,32.055712 c 8.38699,2.209696 11.33571,12.489631 15.1798,17.680677 3.51638,-1.102804 9.40067,-2.352262 13.84661,0.358902"
       id="path537"
       sodipodi:nodetypes="ccc" /><path
       style="mix-blend-mode:normal;fill:none;stroke:#000000;stroke-width:1;stroke-miterlimit:4;stroke-dasharray:none"
       d="m 141.71574,50.128173 c 5.52945,-7.781686 9.31077,-13.750677 15.82994,-16.583756 10.2516,15.15135 11.37017,23.43108 11.68401,28.644669 -3.35861,-5.977404 -9.93887,-13.028692 -16.20685,-19.975887"
       id="path554"
       sodipodi:nodetypes="cccc" /><path
       style="mix-blend-mode:normal;fill:none;stroke:#000000;stroke-width:1;stroke-miterlimit:4;stroke-dasharray:none"
       d="m 146.68785,52.766496 c 5.32197,-0.860671 6.26865,-4.943505 9.79949,-6.784263"
       id="path558"
       sodipodi:nodetypes="cc" /><path
       style="mix-blend-mode:normal;fill:#1a1a1a;stroke:#000000;stroke-width:1;stroke-miterlimit:4;stroke-dasharray:none"
       id="path614"
       sodipodi:type="arc"
       sodipodi:cx="127.01643"
       sodipodi:cy="62.877987"
       sodipodi:rx="3.5493727"
       sodipodi:ry="3.1724675"
       sodipodi:start="6.2244295"
       sodipodi:end="6.210166"
       sodipodi:arc-type="slice"
       d="m 130.55968,62.691693 a 3.5493727,3.1724675 0 0 1 -3.32219,3.352602 3.5493727,3.1724675 0 0 1 -3.76273,-2.957433 3.5493727,3.1724675 0 0 1 3.29536,-3.373694 3.5493727,3.1724675 0 0 1 3.78623,2.933373 l -3.53992,0.231446 z" /><path
       style="mix-blend-mode:normal;fill:#ffffff;fill-opacity:1;stroke:none;stroke-width:1;stroke-miterlimit:4;stroke-dasharray:none"
       id="path2875"
       sodipodi:type="arc"
       sodipodi:cx="124.3782"
       sodipodi:cy="64.197182"
       sodipodi:rx="1.8845178"
       sodipodi:ry="1.696066"
       sodipodi:start="6.2244295"
       sodipodi:end="6.210166"
       sodipodi:arc-type="slice"
       d="m 126.25946,64.097585 a 1.8845178,1.696066 0 0 1 -1.76389,1.79237 1.8845178,1.696066 0 0 1 -1.9978,-1.581104 1.8845178,1.696066 0 0 1 1.74965,-1.803646 1.8845178,1.696066 0 0 1 2.01027,1.568241 l -1.87949,0.123736 z" /><path
       style="mix-blend-mode:normal;fill:#ffffff;fill-opacity:1;stroke:none;stroke-width:1;stroke-miterlimit:4;stroke-dasharray:none"
       id="path3605"
       sodipodi:type="arc"
       sodipodi:cx="131.16243"
       sodipodi:cy="63.254932"
       sodipodi:rx="1.884518"
       sodipodi:ry="2.6383247"
       sodipodi:start="6.2244295"
       sodipodi:end="6.210166"
       sodipodi:arc-type="slice"
       d="m 133.0437,63.100005 a 1.884518,2.6383247 0 0 1 -1.7639,2.78813 1.884518,2.6383247 0 0 1 -1.9978,-2.459496 1.884518,2.6383247 0 0 1 1.74965,-2.805671 1.884518,2.6383247 0 0 1 2.01028,2.439487 l -1.8795,0.192477 z" /><path
       style="mix-blend-mode:normal;fill:#ffffff;fill-opacity:1;stroke:none;stroke-width:1;stroke-miterlimit:4;stroke-dasharray:none"
       id="path2875-2"
       sodipodi:type="arc"
       sodipodi:cx="135.62038"
       sodipodi:cy="64.204742"
       sodipodi:rx="1.8845178"
       sodipodi:ry="1.696066"
       sodipodi:start="6.2244295"
       sodipodi:end="6.210166"
       sodipodi:arc-type="slice"
       d="m 137.50164,64.105146 a 1.8845178,1.696066 0 0 1 -1.76389,1.79237 1.8845178,1.696066 0 0 1 -1.9978,-1.581105 1.8845178,1.696066 0 0 1 1.74965,-1.803646 1.8845178,1.696066 0 0 1 2.01027,1.568242 l -1.87949,0.123735 z" /><path
       style="fill:#1a1a1a;stroke:#000000;stroke-width:0.063665"
       id="path614-6-9"
       sodipodi:type="arc"
       sodipodi:cx="62.942913"
       sodipodi:cy="202.51492"
       sodipodi:rx="3.5493727"
       sodipodi:ry="3.1724675"
       sodipodi:start="6.2244295"
       sodipodi:end="6.210166"
       sodipodi:arc-type="slice"
       d="m 66.486161,202.32863 a 3.5493727,3.1724675 0 0 1 -3.322188,3.3526 3.5493727,3.1724675 0 0 1 -3.762731,-2.95743 3.5493727,3.1724675 0 0 1 3.295353,-3.3737 3.5493727,3.1724675 0 0 1 3.786233,2.93338 l -3.539915,0.23144 z" /><path
       style="fill:#ffffff;fill-opacity:1;stroke:none;stroke-width:0.233805"
       id="path3605-3-1"
       sodipodi:type="arc"
       sodipodi:cx="62.942974"
       sodipodi:cy="200.63048"
       sodipodi:rx="1.884518"
       sodipodi:ry="2.6383247"
       sodipodi:start="6.2244295"
       sodipodi:end="6.210166"
       sodipodi:arc-type="slice"
       d="m 64.82424,200.47555 a 1.884518,2.6383247 0 0 1 -1.763896,2.78813 1.884518,2.6383247 0 0 1 -1.997799,-2.4595 1.884518,2.6383247 0 0 1 1.749648,-2.80567 1.884518,2.6383247 0 0 1 2.010277,2.43949 l -1.879496,0.19248 z" /><path
       style="mix-blend-mode:normal;fill:#1a1a1a;stroke:#000000;stroke-width:1;stroke-miterlimit:4;stroke-dasharray:none"
       id="path3712"
       sodipodi:type="arc"
       sodipodi:cx="-139.63655"
       sodipodi:cy="62.877987"
       sodipodi:rx="3.5493727"
       sodipodi:ry="3.1724675"
       sodipodi:start="6.2244295"
       sodipodi:end="6.210166"
       sodipodi:arc-type="slice"
       d="m -136.0933,62.691693 a 3.5493727,3.1724675 0 0 1 -3.32219,3.352602 3.5493727,3.1724675 0 0 1 -3.76273,-2.957433 3.5493727,3.1724675 0 0 1 3.29535,-3.373694 3.5493727,3.1724675 0 0 1 3.78623,2.933373 l -3.53991,0.231446 z"
       transform="scale(-1,1)" /><path
       style="mix-blend-mode:normal;fill:#ffffff;fill-opacity:1;stroke:none;stroke-width:1;stroke-miterlimit:4;stroke-dasharray:none"
       id="path3714"
       sodipodi:type="arc"
       sodipodi:cx="-142.27478"
       sodipodi:cy="64.197182"
       sodipodi:rx="1.8845178"
       sodipodi:ry="1.696066"
       sodipodi:start="6.2244295"
       sodipodi:end="6.210166"
       sodipodi:arc-type="slice"
       d="m -140.39351,64.097585 a 1.8845178,1.696066 0 0 1 -1.7639,1.79237 1.8845178,1.696066 0 0 1 -1.9978,-1.581104 1.8845178,1.696066 0 0 1 1.74965,-1.803646 1.8845178,1.696066 0 0 1 2.01028,1.568241 l -1.8795,0.123736 z"
       transform="scale(-1,1)" /><path
       style="mix-blend-mode:normal;fill:#ffffff;fill-opacity:1;stroke:none;stroke-width:1;stroke-miterlimit:4;stroke-dasharray:none"
       id="path3716"
       sodipodi:type="arc"
       sodipodi:cx="-135.49057"
       sodipodi:cy="63.254932"
       sodipodi:rx="1.884518"
       sodipodi:ry="2.6383247"
       sodipodi:start="6.2244295"
       sodipodi:end="6.210166"
       sodipodi:arc-type="slice"
       d="m -133.6093,63.100005 a 1.884518,2.6383247 0 0 1 -1.7639,2.78813 1.884518,2.6383247 0 0 1 -1.9978,-2.459496 1.884518,2.6383247 0 0 1 1.74965,-2.805671 1.884518,2.6383247 0 0 1 2.01028,2.439487 l -1.8795,0.192477 z"
       transform="scale(-1,1)" /><path
       style="mix-blend-mode:normal;fill:#782121;fill-opacity:1;stroke:none;stroke-width:1;stroke-miterlimit:4;stroke-dasharray:none"
       d="m 130.71316,67.894595 c -2.01685,2.001504 -3.37188,4.792658 2.24708,4.438838 8.9004,-0.438168 0.41748,-7.776401 -2.24708,-4.438838 z"
       id="path5336"
       sodipodi:nodetypes="ccc" /><path
       style="mix-blend-mode:normal;fill:#e9afaf;fill-opacity:1;stroke:#000000;stroke-width:3.77953;stroke-miterlimit:4;stroke-dasharray:none;stroke-opacity:1"
       d="m 491.11781,465.32101 c -5.28002,-1.79941 -9.97372,-3.64533 -10.43044,-4.10204 -1.07804,-1.07805 -60.27816,-186.85695 -59.73235,-187.44913 0.22799,-0.24737 3.20363,0.30247 6.61253,1.22185 27.85702,7.51306 73.83361,10.41826 103.22315,6.52251 17.89611,-2.37222 39.28528,-7.38012 51.75008,-12.11637 5.97356,-2.26978 7.20941,-2.3864 7.20941,-0.68035 0,1.65286 -26.31733,167.26562 -29.19824,183.74213 -0.66159,3.78375 -2.00721,5.00057 -9.00039,8.13892 -19.31709,8.669 -43.34413,10.54655 -60.43375,4.72248 z"
       id="path5527"
       transform="scale(0.26458333)" /><path
       style="mix-blend-mode:normal;fill:#e9afaf;fill-opacity:1;stroke:#000000;stroke-width:1;stroke-miterlimit:4;stroke-dasharray:none;stroke-opacity:1"
       d="m 44.101029,126.34943 c -1.39701,-0.47609 -2.63888,-0.96449 -2.75972,-1.08533 -0.28523,-0.28524 -15.9486,-49.439232 -15.80419,-49.595913 0.0603,-0.06545 0.84763,0.08003 1.74957,0.323281 7.3705,1.987831 19.53514,2.756498 27.31112,1.725748 4.73502,-0.62765 10.39423,-1.952657 13.69221,-3.20579 1.58051,-0.600546 1.90749,-0.631401 1.90749,-0.180009 0,0.437319 -6.96312,44.255693 -7.72536,48.615103 -0.17505,1.00111 -0.53108,1.32307 -2.38136,2.15342 -5.11098,2.29367 -11.46813,2.79044 -15.98976,1.24949 z"
       id="path5527-3" /><path
       style="mix-blend-mode:normal;fill:#f2c3c3;fill-opacity:0.860169;stroke:none;stroke-width:1;stroke-miterlimit:4;stroke-dasharray:none;stroke-opacity:1"
       d="m 115.70939,76.511419 c 4.42343,17.141453 11.5216,37.838961 13.94543,45.982231 3.57489,0.93657 7.8077,1.02344 9.42259,0 -2.04769,-12.1697 -5.90613,-29.064315 -13.94544,-45.228422 -4.02776,0.171412 -10.4172,-3.938652 -9.42258,-0.753809 z"
       id="path5583"
       sodipodi:nodetypes="ccccc" /><path
       style="mix-blend-mode:normal;fill:#f2c3c3;fill-opacity:0.860169;stroke:none;stroke-width:1;stroke-miterlimit:4;stroke-dasharray:none;stroke-opacity:1"
       d="m 29.827217,79.54115 c 4.42343,17.141449 11.5216,37.83896 13.94543,45.98223 3.57489,0.93657 7.8077,1.02344 9.42259,0 -2.04769,-12.1697 -5.90613,-29.064311 -13.94544,-45.228421 -4.02776,0.171412 -10.4172,-3.938652 -9.42258,-0.753809 z"
       id="path5583-0"
       sodipodi:nodetypes="ccccc" /><path
       style="mix-blend-mode:normal;fill:none;fill-opacity:0.860169;stroke:#000000;stroke-width:1;stroke-miterlimit:4;stroke-dasharray:none;stroke-opacity:1"
       d="M 126.71197,70.024174 C 112.01273,62.863007 112.01273,62.863007 112.01273,62.863007"
       id="path9354" /><path
       style="mix-blend-mode:normal;fill:none;fill-opacity:0.860169;stroke:#000000;stroke-width:1;stroke-miterlimit:4;stroke-dasharray:none;stroke-opacity:1"
       d="m 139.99998,68.313088 c 14.69924,-7.161167 14.69924,-7.161167 14.69924,-7.161167"
       id="path9354-1" /><path
       style="mix-blend-mode:normal;fill:none;fill-opacity:0.860169;stroke:#000000;stroke-width:1;stroke-miterlimit:4;stroke-dasharray:none;stroke-opacity:1"
       d="m 141.52728,71.423221 c 14.69924,-7.16116 14.69924,-7.16116 14.69924,-7.16116"
       id="path9354-1-6" /><path
       style="mix-blend-mode:normal;fill:none;fill-opacity:0.860169;stroke:#000000;stroke-width:1;stroke-miterlimit:4;stroke-dasharray:none;stroke-opacity:1"
       d="M 125.92197,72.938348 C 111.22273,65.777181 111.22273,65.777181 111.22273,65.777181"
       id="path9354-0" /><path
       style="fill:none;fill-opacity:0.860169;stroke:#000000;stroke-width:2.02977"
       d=""
       id="path2366"
       transform="scale(0.26458333)" /><path
       style="fill:none;fill-opacity:0.860169;stroke:#000000;stroke-width:2.02977"
       d=""
       id="path2368"
       transform="scale(0.26458333)" /><path
       style="display:inline;mix-blend-mode:normal;fill:none;fill-rule:evenodd;stroke:#000000;stroke-width:1;stroke-linecap:butt;stroke-linejoin:miter;stroke-miterlimit:4;stroke-dasharray:none;stroke-opacity:1"
       d="m 113.44797,32.036803 -1.50762,0.376901"
       id="path3183"
       inkscape:connector-type="polyline"
       inkscape:connector-curvature="0" /><path
       style="fill:#f4d7d7;fill-opacity:1;stroke:none;stroke-width:2.02977"
       d=""
       id="path3264"
       transform="scale(0.26458333)" /><path
       style="fill:#f4d7d7;fill-opacity:1;stroke:none;stroke-width:2.02977"
       d=""
       id="path3266"
       transform="scale(0.26458333)" /><path
       style="fill:#eedddd;fill-opacity:1;stroke:none;stroke-width:2.02977"
       d=""
       id="path3270"
       transform="scale(0.26458333)" /><path
       style="mix-blend-mode:normal;fill:#f9f5f5;fill-opacity:1;stroke:none;stroke-width:1;stroke-miterlimit:4;stroke-dasharray:none"
       d="m 127.41576,73.391499 c -0.50594,-0.10516 -1.48118,-0.61932 -2.16719,-1.14257 -0.68601,-0.52325 -1.2499,-0.80403 -1.25307,-0.62395 -0.003,0.18008 -0.13038,0.13728 -0.28268,-0.0951 -0.1523,-0.23238 -1.37935,-0.97469 -2.72678,-1.64958 -2.86887,-1.43692 -4.52284,-2.54927 -4.52284,-3.04177 0,-0.60655 0.66326,-0.40188 4.81595,1.48609 4.96523,2.2574 5.88554,2.56474 5.66079,1.89048 -0.20211,-0.60633 -5.22854,-3.3778 -5.65174,-3.11626 -0.16619,0.10272 -0.30216,-0.003 -0.30216,-0.23464 0,-0.23177 -0.15512,-0.32552 -0.34471,-0.20835 -0.18959,0.11718 -0.4016,0.0776 -0.47113,-0.088 -0.0695,-0.16559 -0.76244,-0.6893 -1.53981,-1.1638 -0.81115,-0.49512 -1.41338,-1.15914 -1.41338,-1.5584 0,-0.95382 2.47099,-5.62075 3.6012,-6.80153 0.5069,-0.52959 0.92164,-1.0651 0.92164,-1.19004 0,-0.12493 -1.10912,-1.33628 -2.46471,-2.69187 l -2.46472,-2.46471 1.37298,-2.72636 c 2.40108,-4.76793 2.12984,-9.28571 -0.68363,-11.38626 -1.15179,-0.85994 -3.21469,-1.16507 -3.91989,-0.57981 -0.41096,0.34106 -0.50881,0.16398 -0.50881,-0.92079 0,-0.73869 0.17467,-1.45103 0.38817,-1.58297 0.61445,-0.37976 3.43809,1.47 5.28407,3.46159 0.92885,1.00211 2.60434,3.22127 3.72331,4.93148 1.11896,1.7102 2.17642,3.10945 2.34992,3.10945 0.17349,0 0.29536,0.1272 0.27081,0.28268 -0.10352,0.65562 0.0835,1.12465 0.72309,1.81344 0.37315,0.40186 1.00334,1.28188 1.40043,1.95559 0.53978,0.91584 0.98678,1.22494 1.77141,1.22494 0.5772,0 1.04945,-0.13202 1.04945,-0.29339 0,-0.4404 9.07222,-0.21016 10.29516,0.26127 0.58356,0.22496 1.27391,0.40902 1.53411,0.40902 0.26019,0 2.05425,-2.12073 3.98679,-4.71273 3.49309,-4.68507 8.29208,-9.67211 10.32226,-10.72677 1.00003,-0.51949 1.10402,-0.49742 1.77591,0.37691 0.97442,1.26801 0.93364,1.36503 -0.68295,1.6251 -1.8542,0.29829 -3.10945,1.2133 -3.10945,2.26661 0,0.84183 1.56567,3.24715 4.99397,7.67214 0.98466,1.27092 1.79029,2.44343 1.79029,2.60557 0,0.16213 -1.71018,-1.52105 -3.8004,-3.74041 -2.09022,-2.21936 -3.95589,-4.0352 -4.14594,-4.0352 -0.62338,0 -0.3625,0.77111 0.57959,1.7132 0.50882,0.50882 0.82174,0.92513 0.69539,0.92513 -0.12636,0 0.0429,0.30125 0.37611,0.66946 0.56688,0.62638 0.43121,0.82261 -2.10877,3.04996 -1.49305,1.30928 -3.52027,2.79175 -4.50493,3.29438 -0.98466,0.50263 -1.79029,1.09861 -1.79029,1.32441 0,0.2258 0.51814,1.06475 1.15143,1.86434 0.63328,0.79959 1.74126,2.5854 2.46216,3.96847 1.62465,3.11691 1.70338,3.00393 -4.29792,6.16722 -4.8752,2.56972 -5.97351,3.28183 -5.61484,3.64051 0.32218,0.32218 4.41465,-1.35338 4.41465,-1.80746 0,-0.19546 0.13256,-0.27345 0.29459,-0.17331 0.16202,0.10013 1.7105,-0.48348 3.44106,-1.29692 3.61329,-1.6984 3.80242,-1.73583 3.80242,-0.75253 0,0.81425 -1.2757,1.94515 -2.9998,2.65929 -0.63038,0.26111 -1.14614,0.63378 -1.14614,0.82817 0,0.19438 -0.1696,0.2486 -0.3769,0.12048 -0.2073,-0.12812 -0.3769,-0.0433 -0.3769,0.18845 0,0.23177 -0.16961,0.31657 -0.37691,0.18845 -0.20729,-0.12812 -0.3769,-0.0433 -0.3769,0.18845 0,0.23177 -0.16961,0.31657 -0.3769,0.18845 -0.2073,-0.12811 -0.37691,-0.0433 -0.37691,0.18846 0,0.23176 -0.16961,0.31657 -0.3769,0.18845 -0.2073,-0.12812 -0.37691,-0.0251 -0.37691,0.22902 0,0.25408 -0.1058,0.35616 -0.23511,0.22685 -0.31224,-0.31224 -3.15702,1.15182 -3.15702,1.62476 0,0.20308 0.26099,0.36924 0.57998,0.36924 0.85922,0 6.58119,-2.68651 6.58119,-3.08992 0,-0.19068 0.16961,-0.24188 0.3769,-0.11376 0.2073,0.12812 0.37691,0.0897 0.37691,-0.0854 0,-0.17511 0.29681,-0.33021 0.65958,-0.34466 0.36277,-0.0144 0.96723,-0.15792 1.34325,-0.31879 0.60909,-0.2606 0.67077,-0.11382 0.56536,1.34541 l -0.11832,1.63792 -2.26142,0.47634 c -7.61496,1.60397 -19.16285,2.71567 -22.0265,2.12046 z m 8.93947,-1.46048 c 2.18524,-1.5306 -0.33881,-5.06682 -3.61654,-5.06682 -2.08222,0 -4.83784,4.15085 -3.5864,5.40228 0.5352,0.53521 6.34627,0.26457 7.20294,-0.33546 z m -6.87503,-6.33165 c 0.79655,-1.13724 0.72716,-4.49457 -0.10805,-5.22799 -1.50043,-1.31756 -3.50384,-1.10753 -5.27665,0.55317 -1.13209,1.06049 -1.09135,2.09518 0.0942,2.39274 0.88857,0.22302 1.17644,0.99948 0.98194,2.64862 -0.0308,0.26089 0.67386,0.42088 1.85368,0.42088 1.50315,0 2.01929,-0.16556 2.45486,-0.78742 z m 11.97749,-0.71292 c -0.0596,-1.20949 0.0622,-1.44548 0.84804,-1.6427 1.19604,-0.30019 1.19285,-1.41524 -0.008,-2.61559 -1.1359,-1.13591 -4.05941,-1.30632 -5.16988,-0.30136 -0.73012,0.66075 -0.95526,2.93638 -0.32881,3.32354 0.19824,0.12252 0.26993,0.45863 0.15931,0.74691 -0.11063,0.28828 0.16049,0.88577 0.60248,1.32775 0.61614,0.61615 1.17246,0.77682 2.38478,0.68873 1.56955,-0.11404 1.58067,-0.12528 1.51159,-1.52728 z"
       id="path3895" /><path
       style="fill:#f9f5f5;fill-opacity:1;stroke:none;stroke-width:2.02977"
       d=""
       id="path14109"
       transform="scale(0.26458333)" /><path
       style="mix-blend-mode:normal;fill:#f9f5f5;fill-opacity:1;stroke:none;stroke-width:3.77953;stroke-miterlimit:4;stroke-dasharray:none"
       d="m 456.55782,274.80697 c -18.67113,-2.62572 -17.80647,-2.21361 -17.80647,-8.48677 0,-3.09844 0.22971,-5.63352 0.51047,-5.63352 0.28075,0 7.81289,3.50303 16.73807,7.78451 16.47219,7.90184 16.53211,8.58223 0.55793,6.33578 z"
       id="path14111"
       transform="scale(0.26458333)" /><path
       style="fill:#f9f5f5;fill-opacity:1;stroke:none;stroke-width:2.02977"
       d=""
       id="path14113"
       transform="scale(0.26458333)" /><path
       style="fill:#f9f5f5;fill-opacity:1;stroke:none;stroke-width:2.02977"
       d=""
       id="path14115"
       transform="scale(0.26458333)" /><path
       style="mix-blend-mode:normal;fill:#f9f5f5;fill-opacity:1;stroke:none;stroke-width:3.77953;stroke-miterlimit:4;stroke-dasharray:none"
       d="m 424.78389,133.19237 c 0.029,-2.35045 0.34829,-3.13954 0.70946,-1.75353 0.36118,1.38601 0.33743,3.30911 -0.0528,4.27355 -0.39021,0.96445 -0.68572,-0.16956 -0.65668,-2.52002 z"
       id="path14119"
       transform="scale(0.26458333)" /><path
       style="fill:#f9f5f5;fill-opacity:1;stroke:none;stroke-width:2.02977"
       d=""
       id="path14123"
       transform="scale(0.26458333)" /><path
       style="fill:#f9f5f5;fill-opacity:1;stroke:none;stroke-width:2.02977"
       d=""
       id="path14125"
       transform="scale(0.26458333)" /><path
       style="fill:#f9f5f5;fill-opacity:1;stroke:none;stroke-width:2.02977"
       d=""
       id="path14127"
       transform="scale(0.26458333)" /><path
       style="fill:#ffe6d5;fill-opacity:1;stroke:none;stroke-width:2.02977"
       d=""
       id="path14202"
       transform="scale(0.26458333)" /><path
       style="mix-blend-mode:normal;fill:#f9f5f5;fill-opacity:1;stroke:none;stroke-width:3.77953;stroke-miterlimit:4;stroke-dasharray:none"
       d="m 415.95858,222.86574 c -10e-4,-3.2849 10.11119,-95.51848 10.61259,-96.79595 0.30752,-0.78349 0.60973,0.82371 0.67158,3.57156 l 0.11246,4.99607 6.21508,-0.4943 c 5.29207,-0.4209 6.95936,0.15918 11.22673,3.90598 5.62277,4.93686 8.96195,14.78256 7.40998,21.84862 -0.51124,2.32769 -8.33527,17.14324 -17.38672,32.92345 -16.60855,28.95518 -18.86079,32.54275 -18.8617,30.04457 z"
       id="path17281"
       transform="scale(0.26458333)" /><path
       style="mix-blend-mode:normal;fill:#fff2f2;fill-opacity:1;stroke:none;stroke-width:3.77953;stroke-miterlimit:4;stroke-dasharray:none"
       d="m 628.73496,216.09816 c -4.02162,-5.64047 -12.19479,-15.8376 -18.1626,-22.66029 -10.69006,-12.22142 -14.247,-17.63611 -7.29487,-11.10492 6.72422,6.31707 4.70606,2.11458 -5.81228,-12.10312 -5.79626,-7.83485 -11.57216,-16.40475 -12.83533,-19.04422 -2.1562,-4.50552 -2.13515,-4.96056 0.34418,-7.4399 1.45248,-1.45247 5.56206,-3.52001 9.13241,-4.59453 l 6.49155,-1.95367 7.23716,12.24261 c 11.05731,18.7049 17.22459,31.74978 22.517,47.62742 4.21257,12.63804 7.80806,29.56934 6.23448,29.35837 -0.29681,-0.0398 -3.83007,-4.68728 -7.8517,-10.32775 z"
       id="path17283"
       transform="scale(0.26458333)" /><path
       style="mix-blend-mode:normal;fill:#916f6f;stroke:#000000;stroke-width:1;stroke-miterlimit:4;stroke-dasharray:none"
       d="m 24.653365,75.04973 c 16.20685,50.88198 16.20685,50.88198 16.20685,50.88198 z"
       id="path356-2" /><path
       style="mix-blend-mode:normal;fill:#916f6f;stroke:#000000;stroke-width:1;stroke-miterlimit:4;stroke-dasharray:none"
       d="M 71.012491,73.16521 62.720621,124.801 Z"
       id="path358-5" /><path
       style="mix-blend-mode:normal;fill:#916f6f;stroke:#000000;stroke-width:1;stroke-miterlimit:4;stroke-dasharray:none"
       d="m 40.483315,125.93171 c 5.706886,2.90855 12.948006,3.87936 22.614206,-1.13071 -7.16117,4.25096 -15.45304,5.9188 -22.614206,1.13071 z"
       id="path360-0"
       sodipodi:nodetypes="ccc" /><path
       style="mix-blend-mode:normal;fill:#916f6f;stroke:#000000;stroke-width:1;stroke-miterlimit:4;stroke-dasharray:none"
       d="m 24.276465,75.42663 c 13.31915,1.88263 24.932066,5.471482 47.866736,-2.26142 -14.91844,6.45807 -30.938566,6.85684 -47.866736,2.26142 z"
       id="path458-1"
       sodipodi:nodetypes="ccc" /><path
       style="fill:#280b0b;fill-opacity:1;stroke:none;stroke-width:0.994302;stroke-miterlimit:4;stroke-dasharray:none"
       id="path21203"
       sodipodi:type="arc"
       sodipodi:cx="135.87373"
       sodipodi:cy="-207.67386"
       sodipodi:rx="5.4651017"
       sodipodi:ry="6.7842641"
       sodipodi:start="6.2244295"
       sodipodi:end="6.2159194"
       sodipodi:arc-type="slice"
       d="m 141.3294,-208.07224 a 5.4651017,6.7842641 0 0 1 -5.12314,7.17008 5.4651017,6.7842641 0 0 1 -5.78678,-6.3445 5.4651017,6.7842641 0 0 1 5.09852,-7.19707 5.4651017,6.7842641 0 0 1 5.80848,6.31387 l -5.45275,0.456 z"
       transform="scale(1,-1)" /><path
       style="fill:#ffffff;fill-opacity:1;stroke:none;stroke-width:0.918914;stroke-miterlimit:4;stroke-dasharray:none"
       id="path21257"
       sodipodi:type="arc"
       sodipodi:cx="129.84326"
       sodipodi:cy="212.00826"
       sodipodi:rx="4.3343906"
       sodipodi:ry="3.9574876"
       sodipodi:start="6.2244295"
       sodipodi:end="6.2159194"
       sodipodi:arc-type="slice"
       d="m 134.17017,211.77586 a 4.3343906,3.9574876 0 0 1 -4.06318,4.18255 4.3343906,3.9574876 0 0 1 -4.58952,-3.70096 4.3343906,3.9574876 0 0 1 4.04366,-4.19829 4.3343906,3.9574876 0 0 1 4.60672,3.68309 l -4.32459,0.26601 z" /><path
       style="fill:#000000;fill-opacity:1;stroke:none;stroke-width:0.40647;stroke-miterlimit:4;stroke-dasharray:none"
       id="path21387"
       sodipodi:type="arc"
       sodipodi:cx="135.68529"
       sodipodi:cy="206.7316"
       sodipodi:rx="3.3921316"
       sodipodi:ry="3.5805843"
       sodipodi:start="6.2244295"
       sodipodi:end="6.2159194"
       sodipodi:arc-type="slice"
       d="m 139.07157,206.52134 a 3.3921316,3.5805843 0 0 1 -3.17989,3.78421 3.3921316,3.5805843 0 0 1 -3.59179,-3.34849 3.3921316,3.5805843 0 0 1 3.1646,-3.79845 3.3921316,3.5805843 0 0 1 3.60526,3.33232 l -3.38446,0.24067 z" /><path
       style="fill:#ffffff;fill-opacity:1;stroke:none;stroke-width:0.258522;stroke-miterlimit:4;stroke-dasharray:none"
       id="path21333"
       sodipodi:type="arc"
       sodipodi:cx="135.90991"
       sodipodi:cy="207.36934"
       sodipodi:rx="1.8845174"
       sodipodi:ry="3.0152285"
       sodipodi:start="6.2244295"
       sodipodi:end="6.2159194"
       sodipodi:arc-type="slice"
       d="m 137.79118,207.19228 a 1.8845174,3.0152285 0 0 1 -1.7666,3.1867 1.8845174,3.0152285 0 0 1 -1.99545,-2.81977 1.8845174,3.0152285 0 0 1 1.75811,-3.1987 1.8845174,3.0152285 0 0 1 2.00293,2.80616 l -1.88026,0.20267 z" /></g><g
     inkscape:groupmode="layer"
     id="layer2"
     inkscape:label="Layer 2" /></svg>
